<svg height="48" viewBox="0 0 43 48" width="43" xmlns="http://www.w3.org/2000/svg"><g fill="#fff"><path d="m21.4947 4.66722 8.209 4.60596 4.1623-2.32851-12.3713-6.94467-20.664365 11.6017 4.141275 2.3285z"/><path d="m38.0074 9.27319-16.5126 9.26301-8.2089-4.606-4.15183 2.3285 12.36073 6.9345 20.6749-11.5915z"/><path d="m4.15179 24.8579-4.15179-2.3285v13.8689l20.6643 11.6017v-4.657l-16.51251-9.2732z"/><path d="m0 17.8722 16.5126 9.263v9.2119l4.1517 2.3387v-13.8791l-20.6643-11.5915z"/><path d="m34.6965 22.5293v-4.657l-12.3713 6.9345v23.1931l4.1518-2.3285v-18.5361z"/><path d="m38.8377 15.5437v18.5259l-8.209 4.6162v4.657l12.3713-6.9447v-23.1829z"/></g></svg>